<?xml version="1.0" standalone="no"?>
<!DOCTYPE svg PUBLIC "-//W3C//DTD SVG 20010904//EN"
 "http://www.w3.org/TR/2001/REC-SVG-20010904/DTD/svg10.dtd">
<svg version="1.0" xmlns="http://www.w3.org/2000/svg"
 width="240.000000pt" height="240.000000pt" viewBox="0 0 240.000000 240.000000"
 preserveAspectRatio="xMidYMid meet">
<metadata>
Created by potrace 1.11, written by Peter Selinger 2001-2013
</metadata>
<g transform="translate(0.000000,240.000000) scale(0.100000,-0.100000)"
fill="#000000" stroke="none">
<path d="M688 2165 c-1 -1 -25 -6 -53 -10 -245 -32 -470 -211 -564 -447 -53
-132 -73 -326 -51 -478 18 -118 22 -138 52 -225 109 -322 347 -581 649 -706
159 -65 214 -74 449 -74 191 0 225 3 300 23 47 12 92 24 100 26 60 16 201 71
280 111 269 134 463 325 531 522 25 72 26 235 3 314 -117 394 -761 820 -1411
933 -65 12 -276 20 -285 11z"/>
</g>
</svg>
